#Comment line ignore any data following # character 
#Hierarchical Translation and Rotation (.htr) file 
[Header]	
#Header keywords are followed by a single value 
FileType HTR		#Single word string
DataType HTRS		#Translation followed by rotation and scale data
FileVersion 1		#integer
NumSegments 84		#integer
NumFrames 2		#integer
DataFrameRate 30		#integer, data frame rate in this file
EulerRotationOrder ZYX
CalibrationUnits mm
RotationUnits Degrees
GlobalAxisofGravity Y
BoneLengthAxis Y
ScaleFactor 1.00
[SegmentNames&Hierarchy]
#CHILD	PARENT
MASTER GLOBAL
root MASTER
chest root
L_mid_tent01 root
R_mid_tent01 root
spine01 root
Bip01_Neck chest
L_humerus chest
R_humerus chest
weapon_bone chest
Bip01_Head Bip01_Neck
eye_left_bone Bip01_Head
eye_right_bone Bip01_Head
L_forearm L_humerus
L_front_hand L_forearm
L_weapon_bone L_forearm
L_front_hand01_01 L_front_hand
L_front_hand02_01 L_front_hand
L_front_hand03_01 L_front_hand
L_front_hand01_02 L_front_hand01_01
L_front_hand02_02 L_front_hand02_01
L_front_hand03_02 L_front_hand03_01
R_forearm R_humerus
R_front_hand R_forearm
R_weapon_bone R_forearm
R_front_hand01_01 R_front_hand
R_front_hand02_01 R_front_hand
R_front_hand03_01 R_front_hand
R_front_hand01_02 R_front_hand01_01
R_front_hand02_02 R_front_hand02_01
R_front_hand03_02 R_front_hand03_01
null_rope01_connect L_mid_tent01
Rope1_Seg01 null_rope01_connect
Rope1_Seg02 Rope1_Seg01
Rope1_Seg03 Rope1_Seg02
Rope1_Seg04 Rope1_Seg03
Rope1_Seg05 Rope1_Seg04
Rope1_Seg06 Rope1_Seg05
Rope1_Seg07 Rope1_Seg06
Rope1_Seg09 Rope1_Seg07
L_mid_hand01 Rope1_Seg09
L_mid_hand02 Rope1_Seg09
L_mid_hand03 Rope1_Seg09
null_rope02_connect R_mid_tent01
Rope2_Seg01 null_rope02_connect
Rope2_Seg02 Rope2_Seg01
Rope2_Seg03 Rope2_Seg02
Rope2_Seg04 Rope2_Seg03
Rope2_Seg05 Rope2_Seg04
Rope2_Seg06 Rope2_Seg05
Rope2_Seg07 Rope2_Seg06
Rope2_Seg09 Rope2_Seg07
R_mid_hand01 Rope2_Seg09
R_mid_hand02 Rope2_Seg09
R_mid_hand03 Rope2_Seg09
spine02 spine01
spine03 spine02
pelvis spine03
null_rope03_connect pelvis
null_rope04_connect pelvis
Rope3_Seg01 null_rope03_connect
Rope3_Seg02 Rope3_Seg01
Rope3_Seg03 Rope3_Seg02
Rope3_Seg04 Rope3_Seg03
Rope3_Seg05 Rope3_Seg04
Rope3_Seg06 Rope3_Seg05
Rope3_Seg07 Rope3_Seg06
Rope3_Seg08 Rope3_Seg07
Rope3_Seg09 Rope3_Seg08
R_rear_hand01 Rope3_Seg09
R_rear_hand02 Rope3_Seg09
R_rear_hand03 Rope3_Seg09
Rope4_Seg01 null_rope04_connect
Rope4_Seg02 Rope4_Seg01
Rope4_Seg03 Rope4_Seg02
Rope4_Seg04 Rope4_Seg03
Rope4_Seg05 Rope4_Seg04
Rope4_Seg06 Rope4_Seg05
Rope4_Seg07 Rope4_Seg06
Rope4_Seg08 Rope4_Seg07
Rope4_Seg09 Rope4_Seg08
L_rear_hand01 Rope4_Seg09
L_rear_hand02 Rope4_Seg09
L_rear_hand03 Rope4_Seg09
[BasePosition]
#SegmentName Tx, Ty, Tz, Rx, Ry, Rz, BoneLength
MASTER 0.000000 0.000000 0.000000 -90.000000 0.000000 0.000000 10.000000 
root 0.000000 0.000000 0.000000 0.000000 0.000000 0.000000 10.000000 
chest 0.000000 0.000000 0.000000 0.000000 0.000000 0.000000 10.000000 
L_mid_tent01 0.000000 0.000000 0.000000 0.000000 0.000000 0.000000 10.000000 
R_mid_tent01 0.000000 0.000000 0.000000 0.000000 0.000000 0.000000 10.000000 
spine01 0.000000 0.000000 0.000000 0.000000 0.000000 0.000000 10.000000 
Bip01_Neck 0.000000 0.000000 0.000000 0.000000 0.000000 0.000000 10.000000 
L_humerus 0.000000 0.000000 0.000000 0.000000 0.000000 0.000000 10.000000 
R_humerus 0.000000 0.000000 0.000000 0.000000 0.000000 0.000000 10.000000 
weapon_bone 0.000000 0.000000 0.000000 0.000000 0.000000 0.000000 10.000000 
Bip01_Head 0.000000 0.000000 0.000000 0.000000 0.000000 0.000000 10.000000 
eye_left_bone 0.000000 0.000000 0.000000 0.000000 0.000000 0.000000 10.000000 
eye_right_bone 0.000000 0.000000 0.000000 0.000000 0.000000 0.000000 10.000000 
L_forearm 0.000000 0.000000 0.000000 0.000000 0.000000 0.000000 10.000000 
L_front_hand 0.000000 0.000000 0.000000 0.000000 0.000000 0.000000 10.000000 
L_weapon_bone 0.000000 0.000000 0.000000 0.000000 0.000000 0.000000 10.000000 
L_front_hand01_01 0.000000 0.000000 0.000000 0.000000 0.000000 0.000000 10.000000 
L_front_hand02_01 0.000000 0.000000 0.000000 0.000000 0.000000 0.000000 10.000000 
L_front_hand03_01 0.000000 0.000000 0.000000 0.000000 0.000000 0.000000 10.000000 
L_front_hand01_02 0.000000 0.000000 0.000000 0.000000 0.000000 0.000000 10.000000 
L_front_hand02_02 0.000000 0.000000 0.000000 0.000000 0.000000 0.000000 10.000000 
L_front_hand03_02 0.000000 0.000000 0.000000 0.000000 0.000000 0.000000 10.000000 
R_forearm 0.000000 0.000000 0.000000 0.000000 0.000000 0.000000 10.000000 
R_front_hand 0.000000 0.000000 0.000000 0.000000 0.000000 0.000000 10.000000 
R_weapon_bone 0.000000 0.000000 0.000000 0.000000 0.000000 0.000000 10.000000 
R_front_hand01_01 0.000000 0.000000 0.000000 0.000000 0.000000 0.000000 10.000000 
R_front_hand02_01 0.000000 0.000000 0.000000 0.000000 0.000000 0.000000 10.000000 
R_front_hand03_01 0.000000 0.000000 0.000000 0.000000 0.000000 0.000000 10.000000 
R_front_hand01_02 0.000000 0.000000 0.000000 0.000000 0.000000 0.000000 10.000000 
R_front_hand02_02 0.000000 0.000000 0.000000 0.000000 0.000000 0.000000 10.000000 
R_front_hand03_02 0.000000 0.000000 0.000000 0.000000 0.000000 0.000000 10.000000 
null_rope01_connect 0.000000 0.000000 0.000000 0.000000 0.000000 0.000000 10.000000 
Rope1_Seg01 0.000000 0.000000 0.000000 0.000000 0.000000 0.000000 10.000000 
Rope1_Seg02 0.000000 0.000000 0.000000 0.000000 0.000000 0.000000 10.000000 
Rope1_Seg03 0.000000 0.000000 0.000000 0.000000 0.000000 0.000000 10.000000 
Rope1_Seg04 0.000000 0.000000 0.000000 0.000000 0.000000 0.000000 10.000000 
Rope1_Seg05 0.000000 0.000000 0.000000 0.000000 0.000000 0.000000 10.000000 
Rope1_Seg06 0.000000 0.000000 0.000000 0.000000 0.000000 0.000000 10.000000 
Rope1_Seg07 0.000000 0.000000 0.000000 0.000000 0.000000 0.000000 10.000000 
Rope1_Seg09 0.000000 0.000000 0.000000 0.000000 0.000000 0.000000 10.000000 
L_mid_hand01 0.000000 0.000000 0.000000 0.000000 0.000000 0.000000 10.000000 
L_mid_hand02 0.000000 0.000000 0.000000 0.000000 0.000000 0.000000 10.000000 
L_mid_hand03 0.000000 0.000000 0.000000 0.000000 0.000000 0.000000 10.000000 
null_rope02_connect 0.000000 0.000000 0.000000 0.000000 0.000000 0.000000 10.000000 
Rope2_Seg01 0.000000 0.000000 0.000000 0.000000 0.000000 0.000000 10.000000 
Rope2_Seg02 0.000000 0.000000 0.000000 0.000000 0.000000 0.000000 10.000000 
Rope2_Seg03 0.000000 0.000000 0.000000 0.000000 0.000000 0.000000 10.000000 
Rope2_Seg04 0.000000 0.000000 0.000000 0.000000 0.000000 0.000000 10.000000 
Rope2_Seg05 0.000000 0.000000 0.000000 0.000000 0.000000 0.000000 10.000000 
Rope2_Seg06 0.000000 0.000000 0.000000 0.000000 0.000000 0.000000 10.000000 
Rope2_Seg07 0.000000 0.000000 0.000000 0.000000 0.000000 0.000000 10.000000 
Rope2_Seg09 0.000000 0.000000 0.000000 0.000000 0.000000 0.000000 10.000000 
R_mid_hand01 0.000000 0.000000 0.000000 0.000000 0.000000 0.000000 10.000000 
R_mid_hand02 0.000000 0.000000 0.000000 0.000000 0.000000 0.000000 10.000000 
R_mid_hand03 0.000000 0.000000 0.000000 0.000000 0.000000 0.000000 10.000000 
spine02 0.000000 0.000000 0.000000 0.000000 0.000000 0.000000 10.000000 
spine03 0.000000 0.000000 0.000000 0.000000 0.000000 0.000000 10.000000 
pelvis 0.000000 0.000000 0.000000 0.000000 0.000000 0.000000 10.000000 
null_rope03_connect 0.000000 0.000000 0.000000 0.000000 0.000000 0.000000 10.000000 
null_rope04_connect 0.000000 0.000000 0.000000 0.000000 0.000000 0.000000 10.000000 
Rope3_Seg01 0.000000 0.000000 0.000000 0.000000 0.000000 0.000000 10.000000 
Rope3_Seg02 0.000000 0.000000 0.000000 0.000000 0.000000 0.000000 10.000000 
Rope3_Seg03 0.000000 0.000000 0.000000 0.000000 0.000000 0.000000 10.000000 
Rope3_Seg04 0.000000 0.000000 0.000000 0.000000 0.000000 0.000000 10.000000 
Rope3_Seg05 0.000000 0.000000 0.000000 0.000000 0.000000 0.000000 10.000000 
Rope3_Seg06 0.000000 0.000000 0.000000 0.000000 0.000000 0.000000 10.000000 
Rope3_Seg07 0.000000 0.000000 0.000000 0.000000 0.000000 0.000000 10.000000 
Rope3_Seg08 0.000000 0.000000 0.000000 0.000000 0.000000 0.000000 10.000000 
Rope3_Seg09 0.000000 0.000000 0.000000 0.000000 0.000000 0.000000 10.000000 
R_rear_hand01 0.000000 0.000000 0.000000 0.000000 0.000000 0.000000 10.000000 
R_rear_hand02 0.000000 0.000000 0.000000 0.000000 0.000000 0.000000 10.000000 
R_rear_hand03 0.000000 0.000000 0.000000 0.000000 0.000000 0.000000 10.000000 
Rope4_Seg01 0.000000 0.000000 0.000000 0.000000 0.000000 0.000000 10.000000 
Rope4_Seg02 0.000000 0.000000 0.000000 0.000000 0.000000 0.000000 10.000000 
Rope4_Seg03 0.000000 0.000000 0.000000 0.000000 0.000000 0.000000 10.000000 
Rope4_Seg04 0.000000 0.000000 0.000000 0.000000 0.000000 0.000000 10.000000 
Rope4_Seg05 0.000000 0.000000 0.000000 0.000000 0.000000 0.000000 10.000000 
Rope4_Seg06 0.000000 0.000000 0.000000 0.000000 0.000000 0.000000 10.000000 
Rope4_Seg07 0.000000 0.000000 0.000000 0.000000 0.000000 0.000000 10.000000 
Rope4_Seg08 0.000000 0.000000 0.000000 0.000000 0.000000 0.000000 10.000000 
Rope4_Seg09 0.000000 0.000000 0.000000 0.000000 0.000000 0.000000 10.000000 
L_rear_hand01 0.000000 0.000000 0.000000 0.000000 0.000000 0.000000 10.000000 
L_rear_hand02 0.000000 0.000000 0.000000 0.000000 0.000000 0.000000 10.000000 
L_rear_hand03 0.000000 0.000000 0.000000 0.000000 0.000000 0.000000 10.000000 
#Beginning of Data. Separated by tabs
#Fr	Tx	Ty	Tz	Rx	Ry	Rz	SF
[MASTER]
19 0.000000 0.000000 0.000000 0.001660 0.001660 0.001660 0.000000
20 0.000000 0.000000 0.000000 0.001660 0.001660 0.001660 0.000000
[root]
19 -6.609529 -14.541341 536.808105 -88.980438 -10.540022 -90.387466 537.045715
20 -7.357610 -14.341742 542.406921 -88.581917 -10.449947 -90.639961 542.646362
[chest]
19 -84.512650 -34.090519 0.000000 -6.165767 4.292144 -175.304840 91.129311
20 -84.512650 -34.090519 0.000000 -5.409126 4.526760 -172.802628 91.129311
[L_mid_tent01]
19 27.299564 22.177423 -249.918259 -23.383455 35.648960 60.303291 252.381134
20 27.299568 22.177418 -249.918259 -30.155539 36.737267 57.587772 252.381134
[R_mid_tent01]
19 23.228794 24.509907 226.238495 -151.800751 -26.492472 52.480206 228.744751
20 23.228794 24.509907 226.238495 -148.153244 -27.646444 51.134274 228.744751
[spine01]
19 -0.361383 -0.195265 0.000000 0.001845 0.001451 13.654368 0.410763
20 -0.361383 -0.195265 0.000000 0.001845 0.001451 13.654368 0.410763
[Bip01_Neck]
19 165.484543 71.581718 0.000119 176.643677 -1.657967 43.431911 180.302734
20 165.484543 71.581718 0.000119 176.643677 -1.657967 43.431911 180.302734
[L_humerus]
19 -13.983130 -135.272980 -120.471481 138.618668 61.196255 -149.371964 181.680161
20 -13.983130 -135.272980 -120.471481 134.742401 61.339916 -149.928925 181.680161
[R_humerus]
19 -13.983309 -135.273102 125.287651 -126.601967 -42.282879 -154.839325 184.909012
20 -13.983309 -135.273102 125.287651 -124.290993 -41.981503 -154.729843 184.909012
[weapon_bone]
19 235.964890 -300.705902 0.000000 0.000000 -89.951546 -128.212341 382.234833
20 235.964890 -300.705902 0.000000 0.000000 -89.951546 -128.212341 382.234833
[Bip01_Head]
19 160.093719 150.090164 8.042173 3.161497 4.638315 -28.750793 219.594482
20 150.168793 143.353348 8.132687 2.781712 4.354937 -25.964554 207.766663
[eye_left_bone]
19 -24.626970 125.451866 -64.772606 0.000000 -90.000000 -99.840431 143.318359
20 -24.626970 125.451866 -64.772606 0.000000 -90.000000 -99.840431 143.318359
[eye_right_bone]
19 -24.626970 125.451866 64.327362 0.000000 -89.965736 80.156380 143.117676
20 -24.626970 125.451866 64.327362 0.000000 -89.965736 80.156380 143.117676
[L_forearm]
19 322.776093 0.000000 -0.000119 0.000687 -0.002245 -124.022354 322.776093
20 322.776093 0.000000 -0.000119 0.000719 -0.002234 -125.690590 322.776093
[L_front_hand]
19 241.149185 -0.042021 -3.300071 -178.667953 -1.835447 -27.422350 241.171753
20 241.149185 -0.042021 -3.300071 -178.667953 -1.835447 -27.422350 241.171753
[L_weapon_bone]
19 156.183838 0.000000 0.000000 0.000014 0.000007 0.000001 156.183838
20 156.183838 0.000000 0.000000 0.000014 0.000007 0.000001 156.183838
[L_front_hand01_01]
19 86.095154 20.947098 -0.655860 -0.291159 -0.522967 67.061417 88.609184
20 86.095154 20.947098 -0.655860 -0.366594 -0.477154 75.385574 88.609184
[L_front_hand02_01]
19 86.935165 -11.437475 24.513514 143.101242 -55.544456 -48.031265 91.046425
20 86.935165 -11.437475 24.513514 154.399796 -59.883835 -61.369587 91.046425
[L_front_hand03_01]
19 86.637497 -14.123976 -20.424902 -143.374664 53.765919 -50.005013 90.126129
20 86.637497 -14.123976 -20.424902 -153.913849 58.118122 -62.702866 90.126129
[L_front_hand01_02]
19 71.020905 -0.000179 0.000030 0.000127 -0.002344 -96.186813 71.020905
20 71.020905 -0.000179 0.000030 0.000334 -0.002323 -106.379684 71.020905
[L_front_hand02_02]
19 71.020927 -0.000119 0.000060 0.000127 -0.002344 -96.186813 71.020927
20 71.020927 -0.000119 0.000060 0.000334 -0.002323 -106.379684 71.020927
[L_front_hand03_02]
19 71.020905 -0.000060 0.000060 0.000127 -0.002344 -96.186813 71.020905
20 71.020905 -0.000060 0.000060 0.000334 -0.002323 -106.379684 71.020905
[R_forearm]
19 322.776428 -0.000060 0.000030 0.186475 0.101536 -119.835945 322.776428
20 322.776428 -0.000060 0.000030 0.183110 0.110930 -121.475273 322.776428
[R_front_hand]
19 238.847015 -0.006795 2.210259 -2.635298 -10.645461 -26.312506 238.857239
20 238.847015 -0.006795 2.210259 -2.635298 -10.645461 -26.312506 238.857239
[R_weapon_bone]
19 155.664093 0.002503 -0.000030 0.003487 0.001180 -90.988930 155.664078
20 155.664093 0.002503 -0.000030 0.003487 0.001180 -90.988930 155.664078
[R_front_hand01_01]
19 87.624611 14.231146 22.918642 -143.276382 -55.629841 48.351002 91.683487
20 87.624611 14.231146 22.918642 -154.633499 -59.950619 61.746044 91.683487
[R_front_hand02_01]
19 89.356956 14.367283 -19.491137 143.899765 54.027256 50.886684 92.579636
20 89.356956 14.367283 -19.491137 154.602661 58.302849 63.744389 92.579636
[R_front_hand03_01]
19 87.286232 -22.307278 -0.143439 0.096744 -0.444812 -67.448044 90.091743
20 87.286232 -22.307278 -0.143439 0.162155 -0.423168 -75.767921 90.091743
[R_front_hand01_02]
19 71.020905 0.000060 0.000119 0.002344 -0.000127 96.189003 71.020905
20 71.020905 0.000060 0.000119 0.002323 -0.000334 106.381714 71.020905
[R_front_hand02_02]
19 71.020844 -0.000030 -0.000119 0.002344 -0.000127 96.189003 71.020836
20 71.020844 -0.000030 -0.000119 0.002323 -0.000334 106.381714 71.020836
[R_front_hand03_02]
19 71.020905 0.000000 0.000030 0.002344 -0.000127 96.189003 71.020905
20 71.020905 0.000000 0.000030 0.002323 -0.000334 106.381714 71.020905
[null_rope01_connect]
19 328.732483 0.000000 -0.000238 -176.032272 -49.215660 -151.445511 328.732483
20 328.732483 0.000000 -0.000238 179.056137 -45.265324 -146.556351 328.732483
[Rope1_Seg01]
19 0.000000 0.000000 0.000000 116.172165 -36.031303 153.532333 0.000000
20 0.000000 0.000000 0.000000 117.078514 -33.969582 150.962570 0.000000
[Rope1_Seg02]
19 139.999863 -0.000179 0.000000 -1.801109 -8.897216 -6.455325 139.999863
20 139.999863 -0.000179 0.000000 -1.785466 -7.566247 -5.464151 139.999863
[Rope1_Seg03]
19 139.999924 0.000060 -0.000060 -2.764656 -15.562489 -12.565045 139.999924
20 139.999924 0.000060 -0.000060 -2.923271 -13.386573 -10.635660 139.999924
[Rope1_Seg04]
19 139.999924 -0.000060 -0.000119 -1.403225 -21.205549 -24.406197 139.999924
20 139.999924 -0.000060 -0.000119 -2.237275 -21.661316 -23.726568 139.999924
[Rope1_Seg05]
19 139.999832 0.000119 -0.000060 -0.764794 -13.557734 -14.721126 139.999832
20 139.999832 0.000119 -0.000060 -0.915858 -15.430121 -18.295465 139.999832
[Rope1_Seg06]
19 139.999954 0.000119 -0.000060 -1.514057 -14.718471 -6.239630 139.999954
20 139.999954 0.000119 -0.000060 -1.388067 -13.564636 -6.301882 139.999954
[Rope1_Seg07]
19 139.999985 0.000060 0.000000 -3.091106 -16.347385 -7.748297 139.999985
20 139.999985 0.000060 0.000000 -2.777391 -15.540522 -7.339214 139.999985
[Rope1_Seg09]
19 121.602913 0.000119 -0.000089 -89.793175 -1.359789 0.847147 121.602913
20 121.602913 0.000119 -0.000089 -89.793175 -1.359789 0.847147 121.602913
[L_mid_hand01]
19 103.859421 1.038730 8.195221 109.056198 -40.604698 -13.201401 104.187431
20 103.859421 1.038730 8.195221 109.056198 -40.604698 -13.201401 104.187431
[L_mid_hand02]
19 105.572853 -4.139662 -10.864139 -146.713593 31.476528 -37.902313 106.211075
20 105.572853 -4.139662 -10.864139 -146.713593 31.476524 -37.902309 106.211075
[L_mid_hand03]
19 104.641464 17.579376 -3.913581 -14.267233 12.322316 43.898396 106.179977
20 104.641464 17.579376 -3.913581 -14.267233 12.322316 43.898396 106.179977
[null_rope02_connect]
19 328.732849 0.000179 -0.000119 177.624023 51.063114 -43.724899 328.732849
20 328.732849 0.000179 -0.000119 175.771469 47.391289 -45.630154 328.732849
[Rope2_Seg01]
19 0.000076 0.000112 0.000153 -48.997684 -36.813148 44.752129 0.000204
20 0.000076 0.000112 0.000153 -48.798721 -29.030722 46.622112 0.000204
[Rope2_Seg02]
19 139.999741 -0.000060 -0.000119 1.446157 4.067910 6.882010 139.999756
20 139.999741 -0.000060 -0.000119 1.401061 4.778332 7.024616 139.999756
[Rope2_Seg03]
19 140.000107 0.000030 0.000000 2.498987 7.335910 11.940661 140.000107
20 140.000107 0.000030 0.000000 1.995278 7.751697 11.015676 140.000107
[Rope2_Seg04]
19 139.999802 0.000000 -0.000060 4.159578 16.076040 21.044613 139.999802
20 139.999802 0.000000 -0.000060 2.028728 15.041778 15.114500 139.999802
[Rope2_Seg05]
19 139.999985 -0.000060 0.000119 1.346916 14.513321 21.978539 139.999985
20 139.999985 -0.000060 0.000119 -0.239484 10.863466 17.519804 139.999985
[Rope2_Seg06]
19 139.999893 -0.000030 -0.000119 -0.285403 2.058522 22.176399 139.999893
20 139.999893 -0.000030 -0.000119 -0.379850 0.125888 27.688961 139.999893
[Rope2_Seg07]
19 139.999893 0.000060 -0.000060 1.693271 1.518251 18.245148 139.999893
20 139.999893 0.000060 -0.000060 3.357734 1.012861 21.976061 139.999893
[Rope2_Seg09]
19 121.338966 0.000089 -0.000060 33.793236 -1.359788 -0.847141 121.338966
20 121.338966 0.000089 -0.000060 33.793236 -1.359788 -0.847141 121.338966
[R_mid_hand01]
19 104.680779 11.144459 -10.335981 -37.204067 31.906805 37.576252 105.778534
20 104.680779 11.144459 -10.335981 -37.204079 31.906813 37.576260 105.778534
[R_mid_hand02]
19 104.070427 2.443552 8.231699 70.367462 -42.427391 14.067809 104.424065
20 104.070427 2.443552 8.231699 70.367462 -42.427391 14.067809 104.424065
[R_mid_hand03]
19 106.028137 -11.221827 -5.996406 -169.893616 12.226661 -47.211029 106.788818
20 106.028137 -11.221827 -5.996406 -169.893616 12.226661 -47.211018 106.788818
[spine02]
19 129.756927 0.001550 0.000119 -1.023899 -3.926965 6.770993 129.756927
20 129.756927 0.001550 0.000119 -1.023899 -3.926965 6.770993 129.756927
[spine03]
19 78.613846 0.087372 -4.898873 1.040681 4.146420 4.212376 78.766380
20 78.613846 0.087372 -4.898873 1.040681 4.146420 4.212376 78.766380
[pelvis]
19 169.435242 0.051022 0.000000 0.019518 -0.190233 -10.721436 169.435257
20 169.435242 0.051022 0.000000 0.019518 -0.190233 -10.721436 169.435257
[null_rope03_connect]
19 -1.257226 -2.466202 137.391083 -18.780783 -89.259544 105.484756 137.418976
20 -1.257226 -2.466202 137.391083 -21.270773 -88.830139 107.896637 137.418976
[null_rope04_connect]
19 -1.259640 -2.480268 -137.844437 -18.780783 -89.259544 105.484756 137.872513
20 -1.259640 -2.480268 -137.844437 -21.270773 -88.830139 107.896637 137.872513
[Rope3_Seg01]
19 0.000000 0.000000 0.000000 -164.537186 -35.101639 -27.492468 0.000000
20 0.000000 0.000000 0.000000 -156.274307 -31.870934 -33.764938 0.000000
[Rope3_Seg02]
19 139.999924 -0.000119 0.000060 11.403760 -8.059239 7.109143 139.999924
20 139.999924 -0.000119 0.000060 8.126356 -6.171837 6.807076 139.999924
[Rope3_Seg03]
19 139.999924 -0.000119 0.000119 13.698025 -10.604215 14.420735 139.999924
20 139.999924 -0.000119 0.000119 9.808548 -8.171699 12.355804 139.999924
[Rope3_Seg04]
19 139.999924 0.000119 0.000000 8.692336 -6.521188 24.299828 139.999924
20 139.999924 0.000119 0.000000 7.103798 -5.705024 21.257702 139.999924
[Rope3_Seg05]
19 139.999924 -0.000238 0.000060 2.678274 -3.361083 18.288780 139.999924
20 139.999924 -0.000238 0.000060 2.521946 -3.878714 18.890987 139.999924
[Rope3_Seg06]
19 139.999893 -0.000119 -0.000060 -0.903959 -11.033078 19.677059 139.999893
20 139.999893 -0.000119 -0.000060 -2.230181 -15.643394 22.190615 139.999893
[Rope3_Seg07]
19 139.999771 0.000060 -0.000119 -7.521595 -15.833242 25.589987 139.999771
20 139.999771 0.000060 -0.000119 -8.836936 -20.409742 26.376858 139.999771
[Rope3_Seg08]
19 139.999985 -0.000060 0.000000 -4.396635 -7.720035 12.300167 139.999985
20 139.999985 -0.000060 0.000000 -3.576996 -8.693684 10.863504 139.999985
[Rope3_Seg09]
19 90.185997 -0.000179 -0.000060 89.793228 -1.359877 -0.847183 90.185997
20 90.185997 -0.000179 -0.000060 89.793228 -1.359877 -0.847183 90.185997
[R_rear_hand01]
19 103.366196 -6.073594 -10.757982 -164.755127 19.627697 -40.352161 104.101845
20 103.366196 -6.073594 -10.757982 -164.755127 19.627697 -40.352161 104.101845
[R_rear_hand02]
19 100.509819 12.039542 -7.992327 -30.792645 24.782444 38.141533 101.543350
20 100.509819 12.039542 -7.992327 -30.792652 24.782448 38.141541 101.543350
[R_rear_hand03]
19 101.539970 5.215704 5.435467 82.448349 -41.048256 8.840378 101.819031
20 101.539970 5.215704 5.435467 82.448349 -41.048256 8.840378 101.819031
[Rope4_Seg01]
19 0.000003 -0.000046 -0.000033 70.058723 -42.290112 -127.979401 0.000057
20 0.000005 -0.000045 -0.000027 67.438446 -43.945232 -123.047646 0.000052
[Rope4_Seg02]
19 139.999985 0.000060 0.000119 -16.409966 7.713810 -24.455055 139.999985
20 139.999985 0.000060 0.000119 -12.607976 7.044577 -21.635370 139.999985
[Rope4_Seg03]
19 139.999924 0.000000 -0.000238 -14.297803 13.225888 -20.859900 139.999924
20 139.999924 0.000000 -0.000238 -13.946308 12.886470 -22.845757 139.999924
[Rope4_Seg04]
19 139.999985 0.000000 0.000119 -4.527030 8.306779 -7.990181 139.999985
20 139.999985 0.000000 0.000119 -5.240378 9.826723 -10.324980 139.999985
[Rope4_Seg05]
19 139.999802 -0.000060 -0.000119 -3.615950 8.415697 -8.069985 139.999802
20 139.999802 -0.000060 -0.000119 -3.351291 8.069510 -8.948130 139.999802
[Rope4_Seg06]
19 139.999924 0.000000 0.000060 -8.807261 24.544498 -24.306293 139.999924
20 139.999924 0.000000 0.000060 -8.158876 20.990261 -25.269266 139.999924
[Rope4_Seg07]
19 139.999802 0.000000 0.000000 -0.841075 28.558254 -25.579134 139.999802
20 139.999802 0.000000 0.000000 -3.013358 26.070345 -28.690247 139.999802
[Rope4_Seg08]
19 139.999924 0.000000 0.000119 2.342459 10.025699 -9.821453 139.999924
20 139.999924 0.000000 0.000119 1.104703 9.528519 -10.657122 139.999924
[Rope4_Seg09]
19 90.185791 0.000060 0.000060 -135.617828 2.228885 0.850567 90.185791
20 90.185791 0.000060 0.000060 -135.617828 2.228885 0.850567 90.185791
[L_rear_hand01]
19 101.696655 -8.392275 -7.654577 -31.684452 -23.583008 144.025742 102.329041
20 101.696655 -8.392275 -7.654577 -31.684452 -23.583008 144.025742 102.329041
[L_rear_hand02]
19 102.726799 -1.568258 5.773216 82.701553 38.753956 171.553619 102.900848
20 102.726799 -1.568258 5.773216 82.701553 38.753956 171.553619 102.900848
[L_rear_hand03]
19 104.552910 9.721220 -10.420293 -163.975403 -19.004421 -142.009338 105.519653
20 104.552910 9.721220 -10.420293 -163.975403 -19.004421 -142.009338 105.519653
